<svg width="34" height="34" viewBox="0 0 34 34" fill="none" xmlns="http://www.w3.org/2000/svg">
<path d="M26.9166 14.2026V7.08336C26.9166 5.52075 25.646 4.25 24.0833 4.25H2.83329C1.27068 4.25 0 5.52068 0 7.08336V21.25C0 22.8126 1.27068 24.0834 2.83336 24.0834H18.7187C19.6468 27.3487 22.6494 29.75 26.2084 29.75C27.578 29.75 28.9248 29.3896 30.1049 28.7069C30.4431 28.5111 30.5594 28.0781 30.3629 27.7392C30.1671 27.4002 29.7334 27.2833 29.3951 27.4812C28.4308 28.0387 27.3289 28.3334 26.2083 28.3334C22.6929 28.3334 19.8333 25.4737 19.8333 21.9584C19.8333 18.443 22.6929 15.5834 26.2083 15.5834C29.7236 15.5834 32.5833 18.443 32.5833 21.9584V22.6667C32.5833 23.4476 31.9476 24.0834 31.1666 24.0834C30.3857 24.0834 29.75 23.4476 29.75 22.6667V19.8334C29.75 19.4418 29.4332 19.125 29.0416 19.125C28.8511 19.125 28.6799 19.2021 28.5528 19.3242C27.9267 18.7663 27.1108 18.4166 26.2083 18.4166C24.2555 18.4166 22.6666 20.0055 22.6666 21.9583C22.6666 23.911 24.2555 25.5 26.2084 25.5C27.2639 25.5 28.2025 25.0265 28.852 24.2913C29.3651 25.0202 30.2093 25.5 31.1667 25.5C32.7293 25.5 34 24.2293 34 22.6666V21.9583C34 17.9011 30.8818 14.5621 26.9166 14.2026ZM2.83336 5.66664H24.0834C24.1128 5.66664 24.1375 5.68172 24.1666 5.68351L14.0408 13.9951C13.6804 14.222 13.1581 14.1749 12.9237 14.0311L2.75095 5.68338C2.7797 5.68165 2.80414 5.66664 2.83336 5.66664ZM25.5 14.2026C21.5348 14.5621 18.4166 17.9011 18.4166 21.9584C18.4166 22.1974 18.4313 22.433 18.4525 22.6667H2.83336C2.05242 22.6667 1.41671 22.031 1.41671 21.2501V7.08336C1.41671 6.88274 1.461 6.69328 1.53657 6.52023L12.0874 15.1725C12.4996 15.4416 12.9735 15.5834 13.4584 15.5834C13.9247 15.5834 14.3805 15.452 14.7817 15.203C14.8218 15.1815 14.8599 15.156 14.8959 15.1262L25.3801 6.5201C25.4557 6.69328 25.5001 6.88274 25.5001 7.08342V14.2026H25.5ZM26.2084 24.0834C25.0366 24.0834 24.0834 23.1302 24.0834 21.9584C24.0834 20.7866 25.0366 19.8334 26.2084 19.8334C27.3802 19.8334 28.3334 20.7866 28.3334 21.9584C28.3334 23.1302 27.3802 24.0834 26.2084 24.0834Z" fill="#005C13"/>
</svg>
