<svg width="38" height="38" viewBox="0 0 38 38" fill="none" xmlns="http://www.w3.org/2000/svg">
<path d="M18.9999 0C11.2595 0 4.96252 6.297 4.96252 14.0374C4.96252 16.5856 6.10533 19.3262 6.15322 19.4418C6.52232 20.3179 7.25062 21.6787 7.77578 22.4763L17.4005 37.0595C17.7943 37.6573 18.3773 38 18.9999 38C19.6225 38 20.2055 37.6573 20.5993 37.0603L30.2248 22.4763C30.7508 21.6787 31.4783 20.3179 31.8474 19.4418C31.8953 19.327 33.0373 16.5864 33.0373 14.0374C33.0373 6.297 26.7403 0 18.9999 0ZM30.3248 18.801C29.9953 19.5863 29.3174 20.8521 28.8459 21.5672L19.2204 36.1512C19.0305 36.4394 18.9702 36.4394 18.7803 36.1512L9.15475 21.5672C8.68325 20.8521 8.00533 19.5854 7.67587 18.8002C7.66183 18.7663 6.61398 16.2437 6.61398 14.0374C6.61398 7.20778 12.1703 1.65146 18.9999 1.65146C25.8295 1.65146 31.3858 7.20778 31.3858 14.0374C31.3858 16.247 30.3355 18.7762 30.3248 18.801Z" fill="#005C13"/>
<path d="M18.9999 6.60645C14.9018 6.60645 11.5684 9.94073 11.5684 14.038C11.5684 18.1353 14.9018 21.4696 18.9999 21.4696C23.098 21.4696 26.4315 18.1353 26.4315 14.038C26.4315 9.94073 23.098 6.60645 18.9999 6.60645ZM18.9999 19.8181C15.8134 19.8181 13.2198 17.2253 13.2198 14.038C13.2198 10.8507 15.8134 8.2579 18.9999 8.2579C22.1864 8.2579 24.78 10.8507 24.78 14.038C24.78 17.2253 22.1864 19.8181 18.9999 19.8181Z" fill="#005C13"/>
</svg>
