<svg width="26" height="26" viewBox="0 0 26 26" fill="none" xmlns="http://www.w3.org/2000/svg">
<path d="M25.2651 19.0814L21.6367 15.453C20.3408 14.1572 18.1379 14.6755 17.6195 16.3601C17.2308 17.5264 15.9349 18.1743 14.7687 17.9151C12.177 17.2672 8.67818 13.898 8.03026 11.1767C7.6415 10.0104 8.41901 8.71453 9.58527 8.32583C11.2699 7.80749 11.7882 5.60455 10.4924 4.3087L6.86399 0.680321C5.82731 -0.226774 4.27229 -0.226774 3.3652 0.680321L0.903086 3.14243C-1.55903 5.73413 1.16226 12.6021 7.25275 18.6926C13.3432 24.7831 20.2112 27.634 22.8029 25.0423L25.2651 22.5802C26.1722 21.5435 26.1722 19.9885 25.2651 19.0814Z" fill="#005C13"/>
</svg>
